<?xml version="1.0" standalone="no"?>
<!DOCTYPE svg PUBLIC "-//W3C//DTD SVG 20010904//EN"
 "http://www.w3.org/TR/2001/REC-SVG-20010904/DTD/svg10.dtd">
<svg version="1.0" xmlns="http://www.w3.org/2000/svg"
 width="256.000000pt" height="256.000000pt" viewBox="0 0 256.000000 256.000000"
 preserveAspectRatio="xMidYMid meet">

<g transform="translate(0.000000,256.000000) scale(0.100000,-0.100000)"
fill="#000000" stroke="none">
<path d="M0 1280 l0 -1280 1280 0 1280 0 0 1280 0 1280 -1280 0 -1280 0 0
-1280z m388 578 c9 -9 12 -87 12 -290 l0 -278 218 0 c203 0 220 -1 236 -19 14
-15 15 -24 6 -40 -10 -20 -18 -21 -260 -21 -213 0 -251 2 -264 16 -14 13 -16
56 -16 318 0 311 2 326 40 326 9 0 21 -5 28 -12z m1840 0 c19 -19 17 -621 -2
-637 -9 -8 -88 -11 -267 -9 l-254 3 -3 23 c-7 50 4 52 239 52 l219 0 0 278 c0
286 2 302 40 302 9 0 21 -5 28 -12z m-359 -223 c34 -17 81 -70 81 -91 0 -12
-97 -14 -670 -14 -369 0 -670 3 -670 8 0 19 43 74 72 92 32 19 52 20 596 20
475 0 567 -2 591 -15z m-541 -472 l2 -323 -45 0 -45 0 0 326 0 325 43 -3 42
-3 3 -322z m-868 -10 c-1 -47 -71 -458 -80 -467 -7 -7 -14 -6 -22 2 -9 9 -4
60 21 224 18 117 35 223 38 236 6 27 43 31 43 5z m313 -15 c46 -266 69 -440
58 -451 -23 -23 -35 15 -67 220 -40 248 -41 263 -15 263 13 0 20 -9 24 -32z
m1062 0 c-3 -18 -19 -118 -35 -223 -17 -104 -32 -200 -35 -212 -5 -23 -29 -31
-39 -14 -3 5 11 115 31 245 36 230 38 236 60 236 21 0 23 -3 18 -32z m346
-203 c20 -126 34 -236 31 -242 -2 -7 -11 -13 -18 -13 -8 0 -17 6 -19 13 -5 12
-75 453 -75 469 0 5 10 8 22 6 22 -3 25 -15 59 -233z m-694 -152 c34 -16 73
-64 73 -90 0 -10 -63 -13 -280 -13 -210 0 -280 3 -280 12 0 22 44 76 75 92 46
23 363 22 412 -1z"/>
</g>
</svg>
